<mxfile host="app.diagrams.net" modified="2021-10-22T09:54:42.095Z" agent="5.0 (Windows NT 10.0; Win64; x64) AppleWebKit/537.36 (KHTML, like Gecko) Chrome/95.0.4638.54 Safari/537.36 Edg/95.0.1020.30" etag="K_QjrsU1AcHv_EjWoKHp" version="15.2.9" type="github">
  <diagram id="dd68IeDP7OnxNizeHhGf" name="第 1 页">
    <mxGraphModel dx="981" dy="574" grid="1" gridSize="10" guides="1" tooltips="1" connect="1" arrows="1" fold="1" page="1" pageScale="1" pageWidth="827" pageHeight="1169" math="0" shadow="0">
      <root>
        <mxCell id="0" />
        <mxCell id="1" parent="0" />
        <mxCell id="_sYPzVXbewRdVJfBPXx5-16" value="" style="rounded=0;whiteSpace=wrap;html=1;fillColor=none;" vertex="1" parent="1">
          <mxGeometry x="260" y="30" width="160" height="450" as="geometry" />
        </mxCell>
        <mxCell id="_sYPzVXbewRdVJfBPXx5-10" value="" style="edgeStyle=orthogonalEdgeStyle;rounded=0;orthogonalLoop=1;jettySize=auto;html=1;" edge="1" parent="1" source="_sYPzVXbewRdVJfBPXx5-1" target="_sYPzVXbewRdVJfBPXx5-9">
          <mxGeometry relative="1" as="geometry" />
        </mxCell>
        <mxCell id="_sYPzVXbewRdVJfBPXx5-41" style="edgeStyle=orthogonalEdgeStyle;rounded=0;orthogonalLoop=1;jettySize=auto;html=1;fillColor=#dae8fc;strokeColor=#6c8ebf;" edge="1" parent="1" source="_sYPzVXbewRdVJfBPXx5-1" target="_sYPzVXbewRdVJfBPXx5-26">
          <mxGeometry relative="1" as="geometry">
            <Array as="points">
              <mxPoint x="420" y="190" />
              <mxPoint x="420" y="140" />
              <mxPoint x="1200" y="140" />
            </Array>
          </mxGeometry>
        </mxCell>
        <mxCell id="_sYPzVXbewRdVJfBPXx5-1" value="new&amp;nbsp;tcp&amp;nbsp;connect" style="rounded=0;whiteSpace=wrap;html=1;" vertex="1" parent="1">
          <mxGeometry x="280" y="160" width="120" height="60" as="geometry" />
        </mxCell>
        <mxCell id="_sYPzVXbewRdVJfBPXx5-33" style="edgeStyle=orthogonalEdgeStyle;rounded=0;orthogonalLoop=1;jettySize=auto;html=1;" edge="1" parent="1" source="_sYPzVXbewRdVJfBPXx5-2" target="_sYPzVXbewRdVJfBPXx5-26">
          <mxGeometry relative="1" as="geometry">
            <Array as="points">
              <mxPoint x="1060" y="270" />
              <mxPoint x="1060" y="310" />
            </Array>
          </mxGeometry>
        </mxCell>
        <mxCell id="_sYPzVXbewRdVJfBPXx5-2" value="dongle&amp;nbsp;connect" style="rounded=0;whiteSpace=wrap;html=1;" vertex="1" parent="1">
          <mxGeometry x="280" y="240" width="120" height="60" as="geometry" />
        </mxCell>
        <mxCell id="_sYPzVXbewRdVJfBPXx5-34" style="edgeStyle=orthogonalEdgeStyle;rounded=0;orthogonalLoop=1;jettySize=auto;html=1;entryX=0;entryY=0.5;entryDx=0;entryDy=0;" edge="1" parent="1" source="_sYPzVXbewRdVJfBPXx5-3" target="_sYPzVXbewRdVJfBPXx5-26">
          <mxGeometry relative="1" as="geometry">
            <Array as="points">
              <mxPoint x="1060" y="350" />
              <mxPoint x="1060" y="310" />
            </Array>
          </mxGeometry>
        </mxCell>
        <mxCell id="_sYPzVXbewRdVJfBPXx5-3" value="start&amp;nbsp;a&amp;nbsp;screengroup" style="rounded=0;whiteSpace=wrap;html=1;" vertex="1" parent="1">
          <mxGeometry x="280" y="320" width="120" height="60" as="geometry" />
        </mxCell>
        <mxCell id="_sYPzVXbewRdVJfBPXx5-35" style="edgeStyle=orthogonalEdgeStyle;rounded=0;orthogonalLoop=1;jettySize=auto;html=1;entryX=0;entryY=0.5;entryDx=0;entryDy=0;" edge="1" parent="1" source="_sYPzVXbewRdVJfBPXx5-4" target="_sYPzVXbewRdVJfBPXx5-26">
          <mxGeometry relative="1" as="geometry">
            <Array as="points">
              <mxPoint x="1060" y="430" />
              <mxPoint x="1060" y="310" />
            </Array>
          </mxGeometry>
        </mxCell>
        <mxCell id="_sYPzVXbewRdVJfBPXx5-4" value="airplay&amp;nbsp;mirroring" style="rounded=0;whiteSpace=wrap;html=1;" vertex="1" parent="1">
          <mxGeometry x="280" y="400" width="120" height="60" as="geometry" />
        </mxCell>
        <mxCell id="_sYPzVXbewRdVJfBPXx5-6" style="edgeStyle=orthogonalEdgeStyle;rounded=0;orthogonalLoop=1;jettySize=auto;html=1;" edge="1" parent="1" source="_sYPzVXbewRdVJfBPXx5-5" target="_sYPzVXbewRdVJfBPXx5-1">
          <mxGeometry relative="1" as="geometry" />
        </mxCell>
        <mxCell id="_sYPzVXbewRdVJfBPXx5-5" value="EParallelTcpServer&amp;nbsp;listen" style="rounded=0;whiteSpace=wrap;html=1;" vertex="1" parent="1">
          <mxGeometry x="80" y="160" width="160" height="60" as="geometry" />
        </mxCell>
        <mxCell id="_sYPzVXbewRdVJfBPXx5-12" value="" style="edgeStyle=orthogonalEdgeStyle;rounded=0;orthogonalLoop=1;jettySize=auto;html=1;" edge="1" parent="1" source="_sYPzVXbewRdVJfBPXx5-9" target="_sYPzVXbewRdVJfBPXx5-11">
          <mxGeometry relative="1" as="geometry" />
        </mxCell>
        <mxCell id="_sYPzVXbewRdVJfBPXx5-9" value="EparallelTcpConnectionPool" style="whiteSpace=wrap;html=1;rounded=0;" vertex="1" parent="1">
          <mxGeometry x="440" y="160" width="160" height="60" as="geometry" />
        </mxCell>
        <mxCell id="_sYPzVXbewRdVJfBPXx5-29" value="" style="edgeStyle=orthogonalEdgeStyle;rounded=0;orthogonalLoop=1;jettySize=auto;html=1;" edge="1" parent="1" source="_sYPzVXbewRdVJfBPXx5-11" target="_sYPzVXbewRdVJfBPXx5-28">
          <mxGeometry relative="1" as="geometry" />
        </mxCell>
        <mxCell id="_sYPzVXbewRdVJfBPXx5-11" value="TcpConnectionHandler" style="whiteSpace=wrap;html=1;rounded=0;" vertex="1" parent="1">
          <mxGeometry x="640" y="160" width="160" height="60" as="geometry" />
        </mxCell>
        <mxCell id="_sYPzVXbewRdVJfBPXx5-13" value="Messenger" style="whiteSpace=wrap;html=1;rounded=0;" vertex="1" parent="1">
          <mxGeometry x="1320" y="280" width="120" height="60" as="geometry" />
        </mxCell>
        <mxCell id="_sYPzVXbewRdVJfBPXx5-17" value="old&amp;nbsp;MainCtrlViewModel" style="text;html=1;strokeColor=none;fillColor=none;align=center;verticalAlign=middle;whiteSpace=wrap;rounded=0;" vertex="1" parent="1">
          <mxGeometry x="270" y="40" width="140" height="20" as="geometry" />
        </mxCell>
        <mxCell id="_sYPzVXbewRdVJfBPXx5-20" style="edgeStyle=orthogonalEdgeStyle;rounded=0;orthogonalLoop=1;jettySize=auto;html=1;entryX=0;entryY=0.5;entryDx=0;entryDy=0;" edge="1" parent="1" source="_sYPzVXbewRdVJfBPXx5-18" target="_sYPzVXbewRdVJfBPXx5-2">
          <mxGeometry relative="1" as="geometry" />
        </mxCell>
        <mxCell id="_sYPzVXbewRdVJfBPXx5-18" value="EShareTcpServer&amp;nbsp;listen&amp;nbsp;" style="rounded=0;whiteSpace=wrap;html=1;fillColor=none;" vertex="1" parent="1">
          <mxGeometry x="80" y="240" width="160" height="60" as="geometry" />
        </mxCell>
        <mxCell id="_sYPzVXbewRdVJfBPXx5-22" style="edgeStyle=orthogonalEdgeStyle;rounded=0;orthogonalLoop=1;jettySize=auto;html=1;entryX=0;entryY=0.5;entryDx=0;entryDy=0;" edge="1" parent="1" source="_sYPzVXbewRdVJfBPXx5-21" target="_sYPzVXbewRdVJfBPXx5-3">
          <mxGeometry relative="1" as="geometry" />
        </mxCell>
        <mxCell id="_sYPzVXbewRdVJfBPXx5-21" value="ScreenGroupViewModel" style="rounded=0;whiteSpace=wrap;html=1;fillColor=none;" vertex="1" parent="1">
          <mxGeometry x="80" y="320" width="160" height="60" as="geometry" />
        </mxCell>
        <mxCell id="_sYPzVXbewRdVJfBPXx5-24" style="edgeStyle=orthogonalEdgeStyle;rounded=0;orthogonalLoop=1;jettySize=auto;html=1;entryX=0;entryY=0.5;entryDx=0;entryDy=0;" edge="1" parent="1" source="_sYPzVXbewRdVJfBPXx5-23" target="_sYPzVXbewRdVJfBPXx5-4">
          <mxGeometry relative="1" as="geometry" />
        </mxCell>
        <mxCell id="_sYPzVXbewRdVJfBPXx5-23" value="EShareManager::&lt;br&gt;MirrorSetMirroingUserInfo" style="rounded=0;whiteSpace=wrap;html=1;fillColor=none;" vertex="1" parent="1">
          <mxGeometry x="80" y="400" width="160" height="60" as="geometry" />
        </mxCell>
        <mxCell id="_sYPzVXbewRdVJfBPXx5-32" style="edgeStyle=orthogonalEdgeStyle;rounded=0;orthogonalLoop=1;jettySize=auto;html=1;" edge="1" parent="1" source="_sYPzVXbewRdVJfBPXx5-26" target="_sYPzVXbewRdVJfBPXx5-13">
          <mxGeometry relative="1" as="geometry" />
        </mxCell>
        <mxCell id="_sYPzVXbewRdVJfBPXx5-26" value="MainControlViewModel&lt;br&gt;addNewClient" style="whiteSpace=wrap;html=1;rounded=0;" vertex="1" parent="1">
          <mxGeometry x="1120" y="280" width="160" height="60" as="geometry" />
        </mxCell>
        <mxCell id="_sYPzVXbewRdVJfBPXx5-30" style="edgeStyle=orthogonalEdgeStyle;rounded=0;orthogonalLoop=1;jettySize=auto;html=1;entryX=0;entryY=0.5;entryDx=0;entryDy=0;" edge="1" parent="1" source="_sYPzVXbewRdVJfBPXx5-28" target="_sYPzVXbewRdVJfBPXx5-26">
          <mxGeometry relative="1" as="geometry" />
        </mxCell>
        <mxCell id="_sYPzVXbewRdVJfBPXx5-28" value="&lt;span&gt;(MainCtrlReqHandler)&lt;br&gt;TcpRequestHandler&lt;/span&gt;" style="whiteSpace=wrap;html=1;rounded=0;" vertex="1" parent="1">
          <mxGeometry x="840" y="160" width="160" height="60" as="geometry" />
        </mxCell>
        <mxCell id="_sYPzVXbewRdVJfBPXx5-31" value="Reset" style="text;html=1;strokeColor=none;fillColor=none;align=center;verticalAlign=middle;whiteSpace=wrap;rounded=0;" vertex="1" parent="1">
          <mxGeometry x="800" y="170" width="40" height="20" as="geometry" />
        </mxCell>
        <mxCell id="_sYPzVXbewRdVJfBPXx5-36" value="signal" style="text;html=1;align=center;verticalAlign=middle;resizable=0;points=[];autosize=1;strokeColor=none;fillColor=none;" vertex="1" parent="1">
          <mxGeometry x="675" y="410" width="50" height="20" as="geometry" />
        </mxCell>
        <mxCell id="_sYPzVXbewRdVJfBPXx5-37" value="Call(need to change to signal)" style="text;html=1;align=center;verticalAlign=middle;resizable=0;points=[];autosize=1;strokeColor=none;fillColor=none;" vertex="1" parent="1">
          <mxGeometry x="610" y="330" width="180" height="20" as="geometry" />
        </mxCell>
        <mxCell id="_sYPzVXbewRdVJfBPXx5-39" value="signal" style="text;html=1;align=center;verticalAlign=middle;resizable=0;points=[];autosize=1;strokeColor=none;fillColor=none;" vertex="1" parent="1">
          <mxGeometry x="675" y="250" width="50" height="20" as="geometry" />
        </mxCell>
        <mxCell id="_sYPzVXbewRdVJfBPXx5-43" style="edgeStyle=orthogonalEdgeStyle;rounded=0;orthogonalLoop=1;jettySize=auto;html=1;fillColor=#dae8fc;strokeColor=#6c8ebf;" edge="1" parent="1" source="_sYPzVXbewRdVJfBPXx5-42" target="_sYPzVXbewRdVJfBPXx5-1">
          <mxGeometry relative="1" as="geometry" />
        </mxCell>
        <mxCell id="_sYPzVXbewRdVJfBPXx5-42" value="QTcpServer" style="rounded=0;whiteSpace=wrap;html=1;fillColor=default;" vertex="1" parent="1">
          <mxGeometry x="280" y="60" width="120" height="60" as="geometry" />
        </mxCell>
        <mxCell id="_sYPzVXbewRdVJfBPXx5-44" value="TcpSocket（in&amp;nbsp;main&amp;nbsp;thread）" style="text;html=1;align=center;verticalAlign=middle;resizable=0;points=[];autosize=1;strokeColor=none;fillColor=none;" vertex="1" parent="1">
          <mxGeometry x="725" y="120" width="170" height="20" as="geometry" />
        </mxCell>
        <mxCell id="_sYPzVXbewRdVJfBPXx5-45" value="signal" style="text;html=1;align=center;verticalAlign=middle;resizable=0;points=[];autosize=1;strokeColor=none;fillColor=none;" vertex="1" parent="1">
          <mxGeometry x="1005" y="170" width="50" height="20" as="geometry" />
        </mxCell>
      </root>
    </mxGraphModel>
  </diagram>
</mxfile>
